<svg xmlns="http://www.w3.org/2000/svg" viewBox="0 0 770 872.34"><defs><style>.cls-1{fill:#ffff;}</style></defs><g id="Capa_2" data-name="Capa 2"><g id="Capa_1-2" data-name="Capa 1"><polygon class="cls-1" points="770 231.49 770 658.72 400 872.34 400 676.04 520 606.76 520 664.49 650 589.44 650 439.33 400 583.67 400 0 455.34 31.96 454.88 32.23 650 144.88 650 144.34 705.5 176.38 705.03 176.65 755 205.5 635 274.78 520 208.39 520 375.83 770 231.49"/><polygon class="cls-1" points="250 341.17 250 208.39 120 283.44 120 358.51 370 502.84 370 872.34 0 658.72 0 462.42 120 531.71 120 589.44 250 664.49 250 572.11 0 427.78 0 214.16 370 0.54 370 410.45 250 341.17"/></g></g></svg>